<?xml version="1.0" encoding="utf-8"?>
<!-- Generator: Adobe Illustrator 16.0.0, SVG Export Plug-In . SVG Version: 6.00 Build 0)  -->
<!DOCTYPE svg PUBLIC "-//W3C//DTD SVG 1.1//EN" "http://www.w3.org/Graphics/SVG/1.1/DTD/svg11.dtd">
<svg version="1.1" id="Layer_1" xmlns="http://www.w3.org/2000/svg" xmlns:xlink="http://www.w3.org/1999/xlink" x="0px" y="0px"
	 width="27px" height="42.5px" viewBox="0 0 27 42.5" enable-background="new 0 0 27 42.5" xml:space="preserve">
<g>
	<path fill="#FFFFFF" d="M2.836,7.001h11.276c9.059,0,10.615,5.945,10.615,9.389c0,4.529-2.973,6.416-5.237,6.936
		c1.936,0.472,5.521,2.264,5.521,7.124c0,3.444-1.558,9.578-10.616,9.578H2.836V7.001z M14.112,20.872
		c4.435,0,5.189-2.877,5.189-4.481c0-1.652-0.755-4.529-5.189-4.529H8.262v9.011H14.112z M8.262,25.732v9.435h6.133
		c4.437,0,5.19-3.018,5.19-4.717c0-1.65-0.99-4.718-5.144-4.718H8.262z"/>
</g>
</svg>
