<?xml version="1.0" encoding="utf-8"?>
<!-- Generator: Adobe Illustrator 16.0.0, SVG Export Plug-In . SVG Version: 6.00 Build 0)  -->
<!DOCTYPE svg PUBLIC "-//W3C//DTD SVG 1.1//EN" "http://www.w3.org/Graphics/SVG/1.1/DTD/svg11.dtd">
<svg version="1.1" id="Layer_1" xmlns="http://www.w3.org/2000/svg" xmlns:xlink="http://www.w3.org/1999/xlink" x="0px" y="0px"
	 width="33.75px" height="34.5px" viewBox="0 0 33.75 34.5" enable-background="new 0 0 33.75 34.5" xml:space="preserve">
<g>
	<path fill="#FFFFFF" d="M28.93,19.966c0,1.598-0.634,3.747-1.902,6.448c-1.078,2.295-2.238,4.267-3.48,5.916
		c2.041-6.226,3.062-9.96,3.062-11.203c0-0.381-0.051-0.666-0.152-0.856c-0.229-0.406-1.173-0.843-2.834-1.312
		c0.266,0.545,0.399,1.052,0.399,1.521c0,2.942-1.338,6.543-4.014,10.804c0.418-1.699,0.83-3.405,1.236-5.117
		c0.469-2.156,0.704-3.868,0.704-5.136c0-0.951-0.121-1.604-0.362-1.959c-0.215-0.317-0.786-0.716-1.711-1.198
		c0.139,0.812,0.209,1.699,0.209,2.663c0,1.167-0.14,2.308-0.419,3.424c-0.278,1.116-0.697,2.188-1.255,3.215
		c-0.786,1.407-1.592,2.111-2.416,2.111c-0.837,0-1.648-0.704-2.435-2.111c-0.57-1.027-0.995-2.099-1.274-3.215
		c-0.279-1.116-0.418-2.257-0.418-3.424c0-0.964,0.062-1.852,0.189-2.663c-0.926,0.482-1.496,0.881-1.711,1.198
		c-0.241,0.355-0.362,1.008-0.362,1.959c0,1.268,0.235,2.98,0.704,5.136c0.418,1.711,0.83,3.417,1.236,5.117
		c-2.676-4.248-4.014-7.85-4.014-10.804c0-0.469,0.14-0.977,0.418-1.521c-1.674,0.469-2.618,0.907-2.834,1.312
		c-0.114,0.19-0.171,0.475-0.171,0.856c0,1.28,1.027,5.015,3.081,11.203c-1.243-1.636-2.409-3.607-3.5-5.916
		c-1.268-2.701-1.902-4.851-1.902-6.448c0-0.495,0.089-0.856,0.266-1.084c0.355-0.457,3.475-1.446,9.359-2.967l0.095-0.19
		c-2.562,0.229-4.501,0.343-5.82,0.343c-0.85,0-1.37-0.057-1.56-0.171c-0.469-0.266-0.704-1.444-0.704-3.536
		c0-4.235,0.907-7.672,2.72-10.31c-0.609,4.223-0.913,7.146-0.913,8.769c0,1.94,0.279,3.126,0.837,3.557
		c0.215,0.163,0.653,0.246,1.312,0.246c0.532,0,1.065-0.038,1.598-0.114c-0.773-0.759-1.16-1.754-1.16-2.984
		c0-4.312,1.033-7.843,3.1-10.595c-0.685,3.779-1.027,6.74-1.027,8.883c0,2.409,0.216,3.753,0.647,4.032
		c0.189,0.127,0.514,0.19,0.97,0.19c0.57,0,1.306-0.076,2.206-0.229c-1.077-0.621-1.616-1.725-1.616-3.31
		c0-0.875,0.216-1.661,0.646-2.358C14.467,7.312,15.133,6.9,15.957,6.9s1.49,0.406,1.997,1.218c0.444,0.71,0.666,1.502,0.666,2.377
		c0,1.585-0.539,2.688-1.617,3.31c0.913,0.152,1.648,0.229,2.207,0.229c0.469,0,0.799-0.063,0.989-0.19
		c0.431-0.279,0.646-1.623,0.646-4.032c0-2.118-0.349-5.079-1.046-8.883c2.066,2.751,3.1,6.283,3.1,10.595
		c0,1.23-0.387,2.225-1.16,2.984c0.533,0.076,1.065,0.114,1.598,0.114c0.673,0,1.11-0.083,1.312-0.246
		c0.559-0.431,0.837-1.617,0.837-3.557c0-1.61-0.298-4.533-0.894-8.769c1.813,2.65,2.72,6.087,2.72,10.31
		c0,2.092-0.24,3.27-0.723,3.536c-0.178,0.114-0.691,0.171-1.541,0.171c-1.318,0-3.265-0.114-5.839-0.343l0.095,0.19
		c5.884,1.521,9.004,2.511,9.358,2.967C28.841,19.11,28.93,19.471,28.93,19.966z"/>
</g>
</svg>
