<?xml version="1.0" encoding="utf-8"?>
<!-- Generator: Adobe Illustrator 16.0.0, SVG Export Plug-In . SVG Version: 6.00 Build 0)  -->
<!DOCTYPE svg PUBLIC "-//W3C//DTD SVG 1.1//EN" "http://www.w3.org/Graphics/SVG/1.1/DTD/svg11.dtd">
<svg version="1.1" id="Layer_1" xmlns="http://www.w3.org/2000/svg" xmlns:xlink="http://www.w3.org/1999/xlink" x="0px" y="0px"
	 width="33.75px" height="34.5px" viewBox="0 0 33.75 34.5" enable-background="new 0 0 33.75 34.5" xml:space="preserve">
<g>
	<path fill="#FFFFFF" d="M20.329,5.81c-0.781-0.31-1.588-0.465-2.419-0.465c-1.254,0-2.284,0.397-3.09,1.191l-6.962,6.962
		l0.726,0.726l-2.643,2.66l-4.449-4.447l2.643-2.643l0.819,0.8l6.925-6.925c0.956-0.943,1.979-1.415,3.071-1.415
		C16.787,2.255,18.58,3.44,20.329,5.81z M33.564,8.081c0.124,0.435,0.186,0.869,0.186,1.303c0,1.278-0.446,2.364-1.34,3.258
		c-0.893,0.894-1.979,1.34-3.257,1.34c-0.472,0-0.937-0.068-1.396-0.205l-4.485,4.484l10.182,9.735l-4.059,4.059l-9.753-10.182
		l-4.263,4.281c0.136,0.459,0.204,0.918,0.204,1.377c0,1.29-0.443,2.382-1.331,3.275s-1.977,1.341-3.266,1.341
		c-0.435,0-0.869-0.062-1.304-0.187l3.537-3.536l-3.48-3.481l-3.537,3.537c-0.125-0.435-0.186-0.868-0.186-1.304
		c0-1.277,0.446-2.363,1.34-3.257s1.985-1.34,3.277-1.34c0.434,0,0.869,0.056,1.302,0.167l4.374-4.355L9.98,11.786l3.203-3.202
		l6.589,6.329l4.579-4.579c-0.112-0.422-0.168-0.85-0.168-1.284c0-1.303,0.447-2.401,1.341-3.295c0.893-0.893,1.979-1.34,3.257-1.34
		c0.446,0,0.888,0.062,1.322,0.186l-3.537,3.537l3.462,3.48L33.564,8.081z M9.868,5.289L6.686,8.472L6.071,7.858l3.183-3.184
		L9.868,5.289z"/>
</g>
</svg>
