<?xml version="1.0" encoding="utf-8"?>
<!-- Generator: Adobe Illustrator 16.0.0, SVG Export Plug-In . SVG Version: 6.00 Build 0)  -->
<!DOCTYPE svg PUBLIC "-//W3C//DTD SVG 1.1//EN" "http://www.w3.org/Graphics/SVG/1.1/DTD/svg11.dtd">
<svg version="1.1" id="Layer_1" xmlns="http://www.w3.org/2000/svg" xmlns:xlink="http://www.w3.org/1999/xlink" x="0px" y="0px"
	 width="33.75px" height="34.5px" viewBox="0 0 33.75 34.5" enable-background="new 0 0 33.75 34.5" xml:space="preserve">
<g>
	<path fill="#FFFFFF" d="M32.033,13.07c0,0.78-0.152,1.609-0.457,2.486c-0.328,0.939-0.707,1.555-1.133,1.848l1.023,0.292v1.17
		l-0.842,0.274c-0.098,0.354-0.201,0.945-0.311,1.774c-0.012,0.878,0.092,1.725,0.311,2.542l0.842,0.384v1.116l-16.535,8.376
		L4.251,24.17c-1.208-1.036-1.78-2.719-1.719-5.048c0.012-0.732,0.17-1.262,0.475-1.591c0.159-0.183,0.531-0.415,1.116-0.695
		c0.427-0.207,1.738-0.512,3.933-0.915l-2.853-1.333v-0.915l1.097-0.292c0.232-0.878,0.348-1.768,0.348-2.67
		c0-0.208-0.019-0.5-0.055-0.878L1.233,8.68V7.766l0.695-0.091c0.256-0.671,0.384-1.469,0.384-2.396c0-0.939-0.128-1.75-0.384-2.433
		H1.233V2.169l9.548-1.079l16.936,1.097c0.805,0.061,1.473,0.412,2.004,1.052c0.529,0.64,0.795,1.472,0.795,2.497
		c0,1.39-0.676,2.439-2.029,3.146c1.096-0.012,1.834,0.122,2.213,0.402c0.377,0.28,0.701,0.848,0.969,1.701
		C31.912,11.753,32.033,12.448,32.033,13.07z M13.633,5.278c0.025-1.073-0.264-1.917-0.867-2.533
		c-0.604-0.616-1.34-0.881-2.205-0.796l-8.34,0.768c0.268,0.769,0.402,1.622,0.402,2.561c0,0.927-0.134,1.823-0.402,2.688
		L9.958,9.21c0.146,0.024,0.293,0.037,0.438,0.037c0.877,0,1.631-0.369,2.258-1.106C13.283,7.403,13.609,6.449,13.633,5.278z
		 M14.896,31.138c-0.256-1.279-0.385-2.578-0.385-3.895c0-1.098,0.129-2.049,0.385-2.854l-9.512-6.255
		c-0.28-0.183-0.555-0.274-0.823-0.274c-0.719,0-1.067,0.579-1.042,1.738c0.037,1.634,0.384,2.713,1.042,3.237L14.896,31.138z
		 M19.359,14.606c0-1.341-0.221-2.566-0.66-3.676l-3.145-0.585c-2.098,0.292-3.561,0.439-4.391,0.439
		c-0.207,0-0.365-0.012-0.475-0.037L6.903,9.924c0.037,0.402,0.055,0.707,0.055,0.915c0,0.902-0.153,1.902-0.458,3l12.199,5.12
		C19.139,17.482,19.359,16.031,19.359,14.606z M30.498,24.042c-0.305-0.988-0.451-1.987-0.439-3c0-0.451,0.098-1.055,0.293-1.811
		l-15.09,5.158c-0.244,0.805-0.365,1.755-0.365,2.854c0,1.316,0.133,2.615,0.402,3.895L30.498,24.042z M31.174,13.125
		c0.012-0.951-0.189-1.78-0.604-2.487c-0.391-0.671-0.811-0.981-1.262-0.933L19.029,10.93c0.428,1.11,0.641,2.335,0.641,3.676
		c0,1.425-0.221,2.876-0.658,4.352l10.863-2.561c0.33-0.073,0.623-0.433,0.879-1.079C31.01,14.673,31.15,13.941,31.174,13.125z"/>
</g>
</svg>
